<svg width="1110" height="60" viewBox="0 0 1110 60" fill="none" xmlns="http://www.w3.org/2000/svg">
<path fill-rule="evenodd" clip-rule="evenodd" d="M166.41 31.397C164.676 31.397 163.282 30.0039 163.282 28.2127C163.282 26.45 164.704 25 166.467 25C168.229 25 169.679 26.3931 169.679 28.1558C169.679 29.947 168.229 31.397 166.41 31.397ZM101.786 50.1046V28.3264H107.046V34.297C107.046 34.297 109.377 32.3068 112.419 32.3068C117.565 32.3068 120.607 36.6567 120.607 41.4047C120.607 46.2664 117.508 50.5311 112.59 50.5311C110.287 50.5311 108.581 49.8772 106.961 48.285V50.1046H101.786ZM90.4989 50.5311C85.1255 50.5311 81.4294 47.2615 81.4294 41.4047C81.4294 36.1165 85.2108 32.3068 90.3568 32.3068C95.3891 32.3068 98.943 35.6332 98.943 41.8596L98.9441 42.0109C98.9455 42.099 98.9478 42.179 98.9499 42.2554V42.2555V42.2557V42.2558V42.2559V42.2561V42.2561V42.2562V42.2562C98.956 42.4697 98.9613 42.6553 98.943 42.9116H86.6608C87.1156 44.987 88.7647 45.9821 90.7548 45.9821C92.39 45.9821 93.4944 44.8953 94.3779 43.7702L94.5362 43.5655C94.5362 43.5655 97.1143 45.052 98.3239 45.7787L98.6587 45.9821C97.1234 48.7115 94.1666 50.5311 90.4989 50.5311ZM58.1444 50.1046L51.4915 32.648H57.064L60.5326 42.3145L63.7169 32.648H67.9531L71.308 42.3714L74.7481 32.648H80.2353L73.6678 50.1046H69.0903L65.8492 40.7224L62.7218 50.1046H58.1444ZM90.2999 36.742C91.9489 36.742 92.8587 37.5381 93.4842 39.2155H86.8598C87.5137 37.595 88.5088 36.742 90.2999 36.742ZM111.225 37.1969C113.613 37.1969 115.348 39.0734 115.348 41.291C115.348 43.7645 114.04 45.84 111.453 45.84C108.695 45.84 106.904 44.1057 106.904 41.4047C106.904 38.8744 108.752 37.1969 111.225 37.1969ZM132.037 50.7017C126.692 50.7017 122.598 46.3233 122.598 41.4616C122.598 36.2303 126.777 32.3068 132.15 32.3068C137.439 32.3068 141.561 36.1165 141.561 41.3763C141.561 46.6929 137.723 50.7017 132.037 50.7017ZM132.122 37.2822C134.596 37.2822 136.301 39.0449 136.301 41.291C136.301 44.0204 134.709 45.6978 132.094 45.6978C129.677 45.6978 127.886 43.8782 127.886 41.5469C127.886 39.1587 129.563 37.2822 132.122 37.2822ZM154.838 50.1046H150.119L142.812 32.648H148.726L152.536 42.8547L156.118 32.648H161.69L154.838 50.1046ZM169.082 32.648H163.794V50.1046H169.082V32.648ZM171.926 41.4616C171.926 46.3233 176.02 50.7017 181.365 50.7017C187.051 50.7017 190.889 46.6929 190.889 41.3763C190.889 36.1165 186.767 32.3068 181.478 32.3068C176.105 32.3068 171.926 36.2303 171.926 41.4616ZM185.629 41.291C185.629 39.0449 183.923 37.2822 181.45 37.2822C178.891 37.2822 177.214 39.1587 177.214 41.5469C177.214 43.8782 179.005 45.6978 181.422 45.6978C184.037 45.6978 185.629 44.0204 185.629 41.291Z" fill="white"/>
<path d="M196.064 43.8079C197.855 43.8079 199.333 45.2863 199.333 47.0775C199.333 48.8686 197.855 50.347 196.064 50.347C194.272 50.347 192.794 48.8686 192.794 47.0775C192.794 45.2863 194.272 43.8079 196.064 43.8079Z" fill="#EDB91B"/>
<path fill-rule="evenodd" clip-rule="evenodd" d="M28.5057 51.8209C27.4945 53.5064 25.0518 53.5064 24.0405 51.8209L9.94117 28.322L38.0065 28.322C40.0303 28.322 41.2804 30.5298 40.2391 32.2652L28.5057 51.8209Z" fill="#EDB91B"/>
<path fill-rule="evenodd" clip-rule="evenodd" d="M14.0993 51.8209C15.1106 53.5064 17.5533 53.5064 18.5646 51.8209L32.6639 28.322L4.59853 28.322C2.57474 28.322 1.32469 30.5298 2.36592 32.2652L14.0993 51.8209Z" fill="white"/>
<path fill-rule="evenodd" clip-rule="evenodd" d="M9.94116 28.322H32.6639L21.3033 47.2576L9.94116 28.322Z" fill="#EEF0E7"/>
<rect width="1110" height="1" fill="#5D6544"/>
<path d="M826.558 38.144C827.501 38.144 828.341 38.3587 829.078 38.788C829.815 39.208 830.385 39.796 830.786 40.552C831.197 41.2987 831.402 42.1527 831.402 43.114C831.402 44.0753 831.197 44.934 830.786 45.69C830.385 46.4367 829.815 47.0247 829.078 47.454C828.341 47.874 827.501 48.084 826.558 48.084C825.606 48.084 824.761 47.874 824.024 47.454C823.287 47.0247 822.713 46.4367 822.302 45.69C821.891 44.934 821.686 44.0753 821.686 43.114C821.686 42.1527 821.891 41.2987 822.302 40.552C822.713 39.796 823.287 39.208 824.024 38.788C824.761 38.3587 825.606 38.144 826.558 38.144ZM826.558 38.704C825.69 38.704 824.934 38.8907 824.29 39.264C823.646 39.628 823.151 40.1413 822.806 40.804C822.461 41.4667 822.288 42.2367 822.288 43.114C822.288 43.982 822.461 44.752 822.806 45.424C823.151 46.0867 823.646 46.6047 824.29 46.978C824.934 47.3513 825.69 47.538 826.558 47.538C827.417 47.538 828.163 47.3513 828.798 46.978C829.442 46.6047 829.937 46.0867 830.282 45.424C830.627 44.752 830.8 43.982 830.8 43.114C830.8 42.2367 830.627 41.4667 830.282 40.804C829.937 40.1413 829.442 39.628 828.798 39.264C828.163 38.8907 827.417 38.704 826.558 38.704ZM826.53 39.866C825.97 39.866 825.457 39.9967 824.99 40.258C824.533 40.5193 824.169 40.8973 823.898 41.392C823.627 41.8773 823.492 42.4467 823.492 43.1C823.492 43.7533 823.627 44.3273 823.898 44.822C824.169 45.3073 824.533 45.6853 824.99 45.956C825.457 46.2173 825.97 46.348 826.53 46.348C827.23 46.348 827.837 46.1613 828.35 45.788C828.863 45.4053 829.213 44.8967 829.4 44.262H828.224C827.944 45.0367 827.379 45.424 826.53 45.424C825.97 45.424 825.513 45.2233 825.158 44.822C824.803 44.4207 824.626 43.8513 824.626 43.114C824.626 42.3673 824.803 41.7933 825.158 41.392C825.513 40.9907 825.97 40.79 826.53 40.79C826.941 40.79 827.295 40.8927 827.594 41.098C827.893 41.294 828.103 41.5787 828.224 41.952H829.4C829.223 41.2893 828.877 40.776 828.364 40.412C827.851 40.048 827.239 39.866 826.53 39.866ZM836.534 46.978C837.72 46.026 838.648 45.2467 839.32 44.64C839.992 44.024 840.557 43.3847 841.014 42.722C841.481 42.05 841.714 41.392 841.714 40.748C841.714 40.1413 841.565 39.6653 841.266 39.32C840.977 38.9653 840.506 38.788 839.852 38.788C839.218 38.788 838.723 38.9887 838.368 39.39C838.023 39.782 837.836 40.3093 837.808 40.972H836.576C836.614 39.9267 836.931 39.1193 837.528 38.55C838.126 37.9807 838.896 37.696 839.838 37.696C840.8 37.696 841.56 37.962 842.12 38.494C842.69 39.026 842.974 39.7587 842.974 40.692C842.974 41.4667 842.741 42.2227 842.274 42.96C841.817 43.688 841.294 44.332 840.706 44.892C840.118 45.4427 839.367 46.0867 838.452 46.824H843.268V47.888H836.534V46.978ZM844.741 42.834C844.741 41.2287 845.002 39.978 845.525 39.082C846.048 38.1767 846.962 37.724 848.269 37.724C849.566 37.724 850.476 38.1767 850.999 39.082C851.522 39.978 851.783 41.2287 851.783 42.834C851.783 44.4673 851.522 45.7367 850.999 46.642C850.476 47.5473 849.566 48 848.269 48C846.962 48 846.048 47.5473 845.525 46.642C845.002 45.7367 844.741 44.4673 844.741 42.834ZM850.523 42.834C850.523 42.022 850.467 41.336 850.355 40.776C850.252 40.2067 850.033 39.7493 849.697 39.404C849.37 39.0587 848.894 38.886 848.269 38.886C847.634 38.886 847.149 39.0587 846.813 39.404C846.486 39.7493 846.267 40.2067 846.155 40.776C846.052 41.336 846.001 42.022 846.001 42.834C846.001 43.674 846.052 44.3787 846.155 44.948C846.267 45.5173 846.486 45.9747 846.813 46.32C847.149 46.6653 847.634 46.838 848.269 46.838C848.894 46.838 849.37 46.6653 849.697 46.32C850.033 45.9747 850.252 45.5173 850.355 44.948C850.467 44.3787 850.523 43.674 850.523 42.834ZM853.378 46.978C854.563 46.026 855.492 45.2467 856.164 44.64C856.836 44.024 857.401 43.3847 857.858 42.722C858.325 42.05 858.558 41.392 858.558 40.748C858.558 40.1413 858.409 39.6653 858.11 39.32C857.821 38.9653 857.349 38.788 856.696 38.788C856.061 38.788 855.567 38.9887 855.212 39.39C854.867 39.782 854.68 40.3093 854.652 40.972H853.42C853.457 39.9267 853.775 39.1193 854.372 38.55C854.969 37.9807 855.739 37.696 856.682 37.696C857.643 37.696 858.404 37.962 858.964 38.494C859.533 39.026 859.818 39.7587 859.818 40.692C859.818 41.4667 859.585 42.2227 859.118 42.96C858.661 43.688 858.138 44.332 857.55 44.892C856.962 45.4427 856.211 46.0867 855.296 46.824H860.112V47.888H853.378V46.978ZM861.585 42.834C861.585 41.2287 861.846 39.978 862.369 39.082C862.891 38.1767 863.806 37.724 865.113 37.724C866.41 37.724 867.32 38.1767 867.843 39.082C868.365 39.978 868.627 41.2287 868.627 42.834C868.627 44.4673 868.365 45.7367 867.843 46.642C867.32 47.5473 866.41 48 865.113 48C863.806 48 862.891 47.5473 862.369 46.642C861.846 45.7367 861.585 44.4673 861.585 42.834ZM867.367 42.834C867.367 42.022 867.311 41.336 867.199 40.776C867.096 40.2067 866.877 39.7493 866.541 39.404C866.214 39.0587 865.738 38.886 865.113 38.886C864.478 38.886 863.993 39.0587 863.657 39.404C863.33 39.7493 863.111 40.2067 862.999 40.776C862.896 41.336 862.845 42.022 862.845 42.834C862.845 43.674 862.896 44.3787 862.999 44.948C863.111 45.5173 863.33 45.9747 863.657 46.32C863.993 46.6653 864.478 46.838 865.113 46.838C865.738 46.838 866.214 46.6653 866.541 46.32C866.877 45.9747 867.096 45.5173 867.199 44.948C867.311 44.3787 867.367 43.674 867.367 42.834ZM877.586 39.026C878.622 39.026 879.522 39.222 880.288 39.614C881.053 40.006 881.641 40.5567 882.052 41.266C882.462 41.966 882.668 42.778 882.668 43.702C882.668 44.4393 882.546 45.1487 882.304 45.83C882.061 46.502 881.706 47.048 881.24 47.468C880.782 47.888 880.246 48.098 879.63 48.098C879.163 48.098 878.804 47.9813 878.552 47.748C878.3 47.5147 878.155 47.1973 878.118 46.796C877.828 47.1973 877.46 47.5147 877.012 47.748C876.573 47.9813 876.106 48.098 875.612 48.098C874.902 48.098 874.342 47.8833 873.932 47.454C873.53 47.0153 873.33 46.4273 873.33 45.69C873.33 44.99 873.474 44.3367 873.764 43.73C874.062 43.1233 874.473 42.638 874.996 42.274C875.518 41.9007 876.111 41.714 876.774 41.714C877.66 41.714 878.258 42.05 878.566 42.722L878.72 41.854H879.826L879.126 45.9C879.098 46.0773 879.084 46.2407 879.084 46.39C879.084 46.95 879.331 47.23 879.826 47.23C880.199 47.23 880.521 47.0527 880.792 46.698C881.072 46.3433 881.282 45.9 881.422 45.368C881.562 44.8267 881.632 44.2947 881.632 43.772C881.632 42.5493 881.263 41.602 880.526 40.93C879.798 40.258 878.766 39.922 877.432 39.922C876.321 39.922 875.318 40.1927 874.422 40.734C873.535 41.266 872.84 41.9987 872.336 42.932C871.832 43.8653 871.58 44.8967 871.58 46.026C871.57 47.258 871.939 48.2053 872.686 48.868C873.432 49.54 874.468 49.876 875.794 49.876C876.671 49.876 877.446 49.7173 878.118 49.4L878.286 50.268C877.455 50.6133 876.54 50.786 875.542 50.786C874.543 50.786 873.661 50.5947 872.896 50.212C872.14 49.8387 871.552 49.2973 871.132 48.588C870.721 47.888 870.516 47.0713 870.516 46.138C870.516 44.822 870.819 43.6227 871.426 42.54C872.032 41.448 872.872 40.5893 873.946 39.964C875.028 39.3387 876.242 39.026 877.586 39.026ZM875.99 47.104C876.41 47.104 876.797 46.9827 877.152 46.74C877.506 46.488 877.786 46.152 877.992 45.732C878.197 45.3027 878.3 44.836 878.3 44.332C878.3 43.8467 878.164 43.4547 877.894 43.156C877.632 42.848 877.259 42.694 876.774 42.694C876.326 42.694 875.929 42.8293 875.584 43.1C875.248 43.3613 874.986 43.7113 874.8 44.15C874.613 44.5793 874.52 45.0273 874.52 45.494C874.52 45.9887 874.646 46.3807 874.898 46.67C875.15 46.9593 875.514 47.104 875.99 47.104ZM894.984 40.328L892.59 48H891.274L889.426 41.91L887.578 48H886.262L883.854 40.328H885.156L886.92 46.768L888.824 40.328H890.126L891.988 46.782L893.724 40.328H894.984ZM903.248 43.87C903.248 44.1127 903.234 44.3693 903.206 44.64H897.074C897.121 45.396 897.377 45.9887 897.844 46.418C898.32 46.838 898.894 47.048 899.566 47.048C900.117 47.048 900.574 46.922 900.938 46.67C901.311 46.4087 901.573 46.0633 901.722 45.634H903.094C902.889 46.3713 902.478 46.9733 901.862 47.44C901.246 47.8973 900.481 48.126 899.566 48.126C898.838 48.126 898.185 47.9627 897.606 47.636C897.037 47.3093 896.589 46.8473 896.262 46.25C895.935 45.6433 895.772 44.9433 895.772 44.15C895.772 43.3567 895.931 42.6613 896.248 42.064C896.565 41.4667 897.009 41.0093 897.578 40.692C898.157 40.3653 898.819 40.202 899.566 40.202C900.294 40.202 900.938 40.3607 901.498 40.678C902.058 40.9953 902.487 41.434 902.786 41.994C903.094 42.5447 903.248 43.17 903.248 43.87ZM901.932 43.604C901.932 43.1187 901.825 42.7033 901.61 42.358C901.395 42.0033 901.101 41.7373 900.728 41.56C900.364 41.3733 899.958 41.28 899.51 41.28C898.866 41.28 898.315 41.4853 897.858 41.896C897.41 42.3067 897.153 42.876 897.088 43.604H901.932ZM906.204 41.756C906.465 41.2987 906.848 40.9253 907.352 40.636C907.856 40.3467 908.43 40.202 909.074 40.202C909.764 40.202 910.385 40.3653 910.936 40.692C911.486 41.0187 911.92 41.4807 912.238 42.078C912.555 42.666 912.714 43.352 912.714 44.136C912.714 44.9107 912.555 45.6013 912.238 46.208C911.92 46.8147 911.482 47.286 910.922 47.622C910.371 47.958 909.755 48.126 909.074 48.126C908.411 48.126 907.828 47.9813 907.324 47.692C906.829 47.4027 906.456 47.034 906.204 46.586V48H904.93V37.64H906.204V41.756ZM911.412 44.136C911.412 43.5573 911.295 43.0533 911.062 42.624C910.828 42.1947 910.511 41.868 910.11 41.644C909.718 41.42 909.284 41.308 908.808 41.308C908.341 41.308 907.907 41.4247 907.506 41.658C907.114 41.882 906.796 42.2133 906.554 42.652C906.32 43.0813 906.204 43.5807 906.204 44.15C906.204 44.7287 906.32 45.2373 906.554 45.676C906.796 46.1053 907.114 46.4367 907.506 46.67C907.907 46.894 908.341 47.006 908.808 47.006C909.284 47.006 909.718 46.894 910.11 46.67C910.511 46.4367 910.828 46.1053 911.062 45.676C911.295 45.2373 911.412 44.724 911.412 44.136ZM917.737 48.126C917.018 48.126 916.365 47.9627 915.777 47.636C915.198 47.3093 914.741 46.8473 914.405 46.25C914.078 45.6433 913.915 44.9433 913.915 44.15C913.915 43.366 914.083 42.6753 914.419 42.078C914.764 41.4713 915.231 41.0093 915.819 40.692C916.407 40.3653 917.065 40.202 917.793 40.202C918.521 40.202 919.179 40.3653 919.767 40.692C920.355 41.0093 920.817 41.4667 921.153 42.064C921.498 42.6613 921.671 43.3567 921.671 44.15C921.671 44.9433 921.493 45.6433 921.139 46.25C920.793 46.8473 920.322 47.3093 919.725 47.636C919.127 47.9627 918.465 48.126 917.737 48.126ZM917.737 47.006C918.194 47.006 918.623 46.8987 919.025 46.684C919.426 46.4693 919.748 46.1473 919.991 45.718C920.243 45.2887 920.369 44.766 920.369 44.15C920.369 43.534 920.247 43.0113 920.005 42.582C919.762 42.1527 919.445 41.8353 919.053 41.63C918.661 41.4153 918.236 41.308 917.779 41.308C917.312 41.308 916.883 41.4153 916.491 41.63C916.108 41.8353 915.8 42.1527 915.567 42.582C915.333 43.0113 915.217 43.534 915.217 44.15C915.217 44.7753 915.329 45.3027 915.553 45.732C915.786 46.1613 916.094 46.4833 916.477 46.698C916.859 46.9033 917.279 47.006 917.737 47.006ZM926.202 46.824L928.582 40.328H929.94L926.93 48H925.446L922.436 40.328H923.808L926.202 46.824ZM931.851 39.082C931.609 39.082 931.403 38.998 931.235 38.83C931.067 38.662 930.983 38.4567 930.983 38.214C930.983 37.9713 931.067 37.766 931.235 37.598C931.403 37.43 931.609 37.346 931.851 37.346C932.085 37.346 932.281 37.43 932.439 37.598C932.607 37.766 932.691 37.9713 932.691 38.214C932.691 38.4567 932.607 38.662 932.439 38.83C932.281 38.998 932.085 39.082 931.851 39.082ZM932.467 40.328V48H931.193V40.328H932.467ZM937.985 48.126C937.266 48.126 936.613 47.9627 936.025 47.636C935.446 47.3093 934.989 46.8473 934.653 46.25C934.326 45.6433 934.163 44.9433 934.163 44.15C934.163 43.366 934.331 42.6753 934.667 42.078C935.012 41.4713 935.479 41.0093 936.067 40.692C936.655 40.3653 937.313 40.202 938.041 40.202C938.769 40.202 939.427 40.3653 940.015 40.692C940.603 41.0093 941.065 41.4667 941.401 42.064C941.746 42.6613 941.919 43.3567 941.919 44.15C941.919 44.9433 941.741 45.6433 941.387 46.25C941.041 46.8473 940.57 47.3093 939.973 47.636C939.375 47.9627 938.713 48.126 937.985 48.126ZM937.985 47.006C938.442 47.006 938.871 46.8987 939.273 46.684C939.674 46.4693 939.996 46.1473 940.239 45.718C940.491 45.2887 940.617 44.766 940.617 44.15C940.617 43.534 940.495 43.0113 940.253 42.582C940.01 42.1527 939.693 41.8353 939.301 41.63C938.909 41.4153 938.484 41.308 938.027 41.308C937.56 41.308 937.131 41.4153 936.739 41.63C936.356 41.8353 936.048 42.1527 935.815 42.582C935.581 43.0113 935.465 43.534 935.465 44.15C935.465 44.7753 935.577 45.3027 935.801 45.732C936.034 46.1613 936.342 46.4833 936.725 46.698C937.107 46.9033 937.527 47.006 937.985 47.006ZM944 48.084C943.757 48.084 943.552 48 943.384 47.832C943.216 47.664 943.132 47.4587 943.132 47.216C943.132 46.9733 943.216 46.768 943.384 46.6C943.552 46.432 943.757 46.348 944 46.348C944.233 46.348 944.429 46.432 944.588 46.6C944.756 46.768 944.84 46.9733 944.84 47.216C944.84 47.4587 944.756 47.664 944.588 47.832C944.429 48 944.233 48.084 944 48.084ZM956.034 45.83H951.778L950.994 48H949.649L953.178 38.298H954.648L958.162 48H956.818L956.034 45.83ZM955.67 44.794L953.906 39.866L952.142 44.794H955.67ZM960.973 37.64V48H959.699V37.64H960.973ZM964.418 37.64V48H963.144V37.64H964.418ZM975.46 48L973.136 44.01H971.596V48H970.322V38.242H973.472C974.209 38.242 974.83 38.368 975.334 38.62C975.847 38.872 976.23 39.2127 976.482 39.642C976.734 40.0713 976.86 40.5613 976.86 41.112C976.86 41.784 976.664 42.3767 976.272 42.89C975.889 43.4033 975.311 43.744 974.536 43.912L976.986 48H975.46ZM971.596 42.988H973.472C974.163 42.988 974.681 42.82 975.026 42.484C975.371 42.1387 975.544 41.6813 975.544 41.112C975.544 40.5333 975.371 40.0853 975.026 39.768C974.69 39.4507 974.172 39.292 973.472 39.292H971.596V42.988ZM979.498 39.082C979.255 39.082 979.05 38.998 978.882 38.83C978.714 38.662 978.63 38.4567 978.63 38.214C978.63 37.9713 978.714 37.766 978.882 37.598C979.05 37.43 979.255 37.346 979.498 37.346C979.731 37.346 979.927 37.43 980.086 37.598C980.254 37.766 980.338 37.9713 980.338 38.214C980.338 38.4567 980.254 38.662 980.086 38.83C979.927 38.998 979.731 39.082 979.498 39.082ZM980.114 40.328V48H978.84V40.328H980.114ZM985.449 40.202C986.112 40.202 986.69 40.3467 987.185 40.636C987.689 40.9253 988.062 41.2893 988.305 41.728V40.328H989.593V48.168C989.593 48.868 989.444 49.4887 989.145 50.03C988.846 50.5807 988.417 51.01 987.857 51.318C987.306 51.626 986.662 51.78 985.925 51.78C984.917 51.78 984.077 51.542 983.405 51.066C982.733 50.59 982.336 49.9413 982.215 49.12H983.475C983.615 49.5867 983.904 49.96 984.343 50.24C984.782 50.5293 985.309 50.674 985.925 50.674C986.625 50.674 987.194 50.4547 987.633 50.016C988.081 49.5773 988.305 48.9613 988.305 48.168V46.558C988.053 47.006 987.68 47.3793 987.185 47.678C986.69 47.9767 986.112 48.126 985.449 48.126C984.768 48.126 984.147 47.958 983.587 47.622C983.036 47.286 982.602 46.8147 982.285 46.208C981.968 45.6013 981.809 44.9107 981.809 44.136C981.809 43.352 981.968 42.666 982.285 42.078C982.602 41.4807 983.036 41.0187 983.587 40.692C984.147 40.3653 984.768 40.202 985.449 40.202ZM988.305 44.15C988.305 43.5713 988.188 43.0673 987.955 42.638C987.722 42.2087 987.404 41.882 987.003 41.658C986.611 41.4247 986.177 41.308 985.701 41.308C985.225 41.308 984.791 41.42 984.399 41.644C984.007 41.868 983.694 42.1947 983.461 42.624C983.228 43.0533 983.111 43.5573 983.111 44.136C983.111 44.724 983.228 45.2373 983.461 45.676C983.694 46.1053 984.007 46.4367 984.399 46.67C984.791 46.894 985.225 47.006 985.701 47.006C986.177 47.006 986.611 46.894 987.003 46.67C987.404 46.4367 987.722 46.1053 987.955 45.676C988.188 45.2373 988.305 44.7287 988.305 44.15ZM995.554 40.188C996.133 40.188 996.655 40.314 997.122 40.566C997.589 40.8087 997.953 41.1773 998.214 41.672C998.485 42.1667 998.62 42.7687 998.62 43.478V48H997.36V43.66C997.36 42.8947 997.169 42.3113 996.786 41.91C996.403 41.4993 995.881 41.294 995.218 41.294C994.546 41.294 994.009 41.504 993.608 41.924C993.216 42.344 993.02 42.9553 993.02 43.758V48H991.746V37.64H993.02V41.42C993.272 41.028 993.617 40.7247 994.056 40.51C994.504 40.2953 995.003 40.188 995.554 40.188ZM1002.26 41.378V45.9C1002.26 46.2733 1002.33 46.5393 1002.49 46.698C1002.65 46.8473 1002.93 46.922 1003.32 46.922H1004.26V48H1003.11C1002.4 48 1001.87 47.8367 1001.51 47.51C1001.16 47.1833 1000.98 46.6467 1000.98 45.9V41.378H999.987V40.328H1000.98V38.396H1002.26V40.328H1004.26V41.378H1002.26ZM1008.52 48.126C1007.93 48.126 1007.4 48.028 1006.93 47.832C1006.47 47.6267 1006.1 47.3467 1005.83 46.992C1005.56 46.628 1005.41 46.2127 1005.38 45.746H1006.7C1006.73 46.1287 1006.91 46.4413 1007.23 46.684C1007.56 46.9267 1007.98 47.048 1008.5 47.048C1008.99 47.048 1009.37 46.9407 1009.65 46.726C1009.93 46.5113 1010.07 46.2407 1010.07 45.914C1010.07 45.578 1009.92 45.3307 1009.62 45.172C1009.32 45.004 1008.86 44.8407 1008.24 44.682C1007.67 44.5327 1007.2 44.3833 1006.84 44.234C1006.48 44.0753 1006.17 43.8467 1005.91 43.548C1005.66 43.24 1005.53 42.8387 1005.53 42.344C1005.53 41.952 1005.65 41.5927 1005.88 41.266C1006.12 40.9393 1006.45 40.6827 1006.88 40.496C1007.31 40.3 1007.8 40.202 1008.35 40.202C1009.2 40.202 1009.88 40.4167 1010.41 40.846C1010.93 41.2753 1011.21 41.8633 1011.25 42.61H1009.97C1009.94 42.2087 1009.78 41.8867 1009.48 41.644C1009.19 41.4013 1008.8 41.28 1008.31 41.28C1007.85 41.28 1007.49 41.378 1007.21 41.574C1006.94 41.77 1006.81 42.0267 1006.81 42.344C1006.81 42.596 1006.89 42.806 1007.05 42.974C1007.21 43.1327 1007.42 43.2633 1007.66 43.366C1007.91 43.4593 1008.26 43.5667 1008.7 43.688C1009.25 43.8373 1009.7 43.9867 1010.04 44.136C1010.39 44.276 1010.68 44.4907 1010.92 44.78C1011.18 45.0693 1011.31 45.4473 1011.32 45.914C1011.32 46.334 1011.2 46.712 1010.97 47.048C1010.73 47.384 1010.4 47.65 1009.97 47.846C1009.55 48.0327 1009.07 48.126 1008.52 48.126ZM1021.99 48L1019.66 44.01H1018.12V48H1016.85V38.242H1020C1020.73 38.242 1021.36 38.368 1021.86 38.62C1022.37 38.872 1022.76 39.2127 1023.01 39.642C1023.26 40.0713 1023.39 40.5613 1023.39 41.112C1023.39 41.784 1023.19 42.3767 1022.8 42.89C1022.41 43.4033 1021.84 43.744 1021.06 43.912L1023.51 48H1021.99ZM1018.12 42.988H1020C1020.69 42.988 1021.21 42.82 1021.55 42.484C1021.9 42.1387 1022.07 41.6813 1022.07 41.112C1022.07 40.5333 1021.9 40.0853 1021.55 39.768C1021.22 39.4507 1020.7 39.292 1020 39.292H1018.12V42.988ZM1032.37 43.87C1032.37 44.1127 1032.35 44.3693 1032.32 44.64H1026.19C1026.24 45.396 1026.49 45.9887 1026.96 46.418C1027.44 46.838 1028.01 47.048 1028.68 47.048C1029.23 47.048 1029.69 46.922 1030.06 46.67C1030.43 46.4087 1030.69 46.0633 1030.84 45.634H1032.21C1032.01 46.3713 1031.6 46.9733 1030.98 47.44C1030.36 47.8973 1029.6 48.126 1028.68 48.126C1027.96 48.126 1027.3 47.9627 1026.72 47.636C1026.15 47.3093 1025.71 46.8473 1025.38 46.25C1025.05 45.6433 1024.89 44.9433 1024.89 44.15C1024.89 43.3567 1025.05 42.6613 1025.37 42.064C1025.68 41.4667 1026.13 41.0093 1026.7 40.692C1027.27 40.3653 1027.94 40.202 1028.68 40.202C1029.41 40.202 1030.06 40.3607 1030.62 40.678C1031.18 40.9953 1031.6 41.434 1031.9 41.994C1032.21 42.5447 1032.37 43.17 1032.37 43.87ZM1031.05 43.604C1031.05 43.1187 1030.94 42.7033 1030.73 42.358C1030.51 42.0033 1030.22 41.7373 1029.85 41.56C1029.48 41.3733 1029.08 41.28 1028.63 41.28C1027.98 41.28 1027.43 41.4853 1026.98 41.896C1026.53 42.3067 1026.27 42.876 1026.21 43.604H1031.05ZM1036.76 48.126C1036.17 48.126 1035.65 48.028 1035.18 47.832C1034.71 47.6267 1034.35 47.3467 1034.07 46.992C1033.8 46.628 1033.65 46.2127 1033.63 45.746H1034.94C1034.98 46.1287 1035.16 46.4413 1035.47 46.684C1035.8 46.9267 1036.23 47.048 1036.75 47.048C1037.23 47.048 1037.62 46.9407 1037.9 46.726C1038.18 46.5113 1038.32 46.2407 1038.32 45.914C1038.32 45.578 1038.17 45.3307 1037.87 45.172C1037.57 45.004 1037.11 44.8407 1036.48 44.682C1035.91 44.5327 1035.45 44.3833 1035.08 44.234C1034.73 44.0753 1034.42 43.8467 1034.16 43.548C1033.91 43.24 1033.78 42.8387 1033.78 42.344C1033.78 41.952 1033.9 41.5927 1034.13 41.266C1034.36 40.9393 1034.7 40.6827 1035.12 40.496C1035.55 40.3 1036.04 40.202 1036.59 40.202C1037.44 40.202 1038.13 40.4167 1038.65 40.846C1039.18 41.2753 1039.46 41.8633 1039.49 42.61H1038.22C1038.19 42.2087 1038.03 41.8867 1037.73 41.644C1037.44 41.4013 1037.05 41.28 1036.55 41.28C1036.1 41.28 1035.73 41.378 1035.46 41.574C1035.19 41.77 1035.05 42.0267 1035.05 42.344C1035.05 42.596 1035.13 42.806 1035.29 42.974C1035.46 43.1327 1035.67 43.2633 1035.91 43.366C1036.16 43.4593 1036.51 43.5667 1036.94 43.688C1037.5 43.8373 1037.94 43.9867 1038.29 44.136C1038.63 44.276 1038.93 44.4907 1039.17 44.78C1039.42 45.0693 1039.55 45.4473 1039.56 45.914C1039.56 46.334 1039.45 46.712 1039.21 47.048C1038.98 47.384 1038.65 47.65 1038.22 47.846C1037.8 48.0327 1037.31 48.126 1036.76 48.126ZM1048.36 43.87C1048.36 44.1127 1048.35 44.3693 1048.32 44.64H1042.19C1042.23 45.396 1042.49 45.9887 1042.96 46.418C1043.43 46.838 1044.01 47.048 1044.68 47.048C1045.23 47.048 1045.69 46.922 1046.05 46.67C1046.42 46.4087 1046.69 46.0633 1046.84 45.634H1048.21C1048 46.3713 1047.59 46.9733 1046.98 47.44C1046.36 47.8973 1045.59 48.126 1044.68 48.126C1043.95 48.126 1043.3 47.9627 1042.72 47.636C1042.15 47.3093 1041.7 46.8473 1041.38 46.25C1041.05 45.6433 1040.89 44.9433 1040.89 44.15C1040.89 43.3567 1041.04 42.6613 1041.36 42.064C1041.68 41.4667 1042.12 41.0093 1042.69 40.692C1043.27 40.3653 1043.93 40.202 1044.68 40.202C1045.41 40.202 1046.05 40.3607 1046.61 40.678C1047.17 40.9953 1047.6 41.434 1047.9 41.994C1048.21 42.5447 1048.36 43.17 1048.36 43.87ZM1047.05 43.604C1047.05 43.1187 1046.94 42.7033 1046.72 42.358C1046.51 42.0033 1046.21 41.7373 1045.84 41.56C1045.48 41.3733 1045.07 41.28 1044.62 41.28C1043.98 41.28 1043.43 41.4853 1042.97 41.896C1042.52 42.3067 1042.27 42.876 1042.2 43.604H1047.05ZM1051.32 41.574C1051.54 41.1353 1051.86 40.7947 1052.27 40.552C1052.69 40.3093 1053.2 40.188 1053.79 40.188V41.504H1053.46C1052.03 41.504 1051.32 42.2787 1051.32 43.828V48H1050.04V40.328H1051.32V41.574ZM1058.12 46.824L1060.5 40.328H1061.86L1058.85 48H1057.37L1054.36 40.328H1055.73L1058.12 46.824ZM1070.11 43.87C1070.11 44.1127 1070.1 44.3693 1070.07 44.64H1063.94C1063.99 45.396 1064.24 45.9887 1064.71 46.418C1065.19 46.838 1065.76 47.048 1066.43 47.048C1066.98 47.048 1067.44 46.922 1067.8 46.67C1068.18 46.4087 1068.44 46.0633 1068.59 45.634H1069.96C1069.75 46.3713 1069.34 46.9733 1068.73 47.44C1068.11 47.8973 1067.35 48.126 1066.43 48.126C1065.7 48.126 1065.05 47.9627 1064.47 47.636C1063.9 47.3093 1063.45 46.8473 1063.13 46.25C1062.8 45.6433 1062.64 44.9433 1062.64 44.15C1062.64 43.3567 1062.8 42.6613 1063.11 42.064C1063.43 41.4667 1063.87 41.0093 1064.44 40.692C1065.02 40.3653 1065.68 40.202 1066.43 40.202C1067.16 40.202 1067.8 40.3607 1068.36 40.678C1068.92 40.9953 1069.35 41.434 1069.65 41.994C1069.96 42.5447 1070.11 43.17 1070.11 43.87ZM1068.8 43.604C1068.8 43.1187 1068.69 42.7033 1068.48 42.358C1068.26 42.0033 1067.97 41.7373 1067.59 41.56C1067.23 41.3733 1066.82 41.28 1066.38 41.28C1065.73 41.28 1065.18 41.4853 1064.72 41.896C1064.28 42.3067 1064.02 42.876 1063.95 43.604H1068.8ZM1071.32 44.136C1071.32 43.352 1071.48 42.666 1071.79 42.078C1072.11 41.4807 1072.55 41.0187 1073.1 40.692C1073.66 40.3653 1074.28 40.202 1074.97 40.202C1075.57 40.202 1076.13 40.342 1076.64 40.622C1077.15 40.8927 1077.54 41.252 1077.81 41.7V37.64H1079.1V48H1077.81V46.558C1077.56 47.0153 1077.19 47.3933 1076.69 47.692C1076.2 47.9813 1075.62 48.126 1074.96 48.126C1074.28 48.126 1073.66 47.958 1073.1 47.622C1072.55 47.286 1072.11 46.8147 1071.79 46.208C1071.48 45.6013 1071.32 44.9107 1071.32 44.136ZM1077.81 44.15C1077.81 43.5713 1077.7 43.0673 1077.46 42.638C1077.23 42.2087 1076.91 41.882 1076.51 41.658C1076.12 41.4247 1075.69 41.308 1075.21 41.308C1074.73 41.308 1074.3 41.42 1073.91 41.644C1073.52 41.868 1073.2 42.1947 1072.97 42.624C1072.74 43.0533 1072.62 43.5573 1072.62 44.136C1072.62 44.724 1072.74 45.2373 1072.97 45.676C1073.2 46.1053 1073.52 46.4367 1073.91 46.67C1074.3 46.894 1074.73 47.006 1075.21 47.006C1075.69 47.006 1076.12 46.894 1076.51 46.67C1076.91 46.4367 1077.23 46.1053 1077.46 45.676C1077.7 45.2373 1077.81 44.7287 1077.81 44.15ZM1081.66 48.084C1081.42 48.084 1081.21 48 1081.05 47.832C1080.88 47.664 1080.79 47.4587 1080.79 47.216C1080.79 46.9733 1080.88 46.768 1081.05 46.6C1081.21 46.432 1081.42 46.348 1081.66 46.348C1081.9 46.348 1082.09 46.432 1082.25 46.6C1082.42 46.768 1082.5 46.9733 1082.5 47.216C1082.5 47.4587 1082.42 47.664 1082.25 47.832C1082.09 48 1081.9 48.084 1081.66 48.084Z" fill="#B5C096"/>
</svg>
